<?xml version="1.0" encoding="UTF-8"?>
<svg xmlns="http://www.w3.org/2000/svg" version="1.1" viewBox="0 0 380 150">
  <defs>
    <style>
      .cls-1 {
        fill: #ce363e;
      }

      .cls-2 {
        fill: #e2bf48;
      }

      .cls-3 {
        fill: #ccc;
      }

      .cls-4 {
        fill: #76a263;
      }

      .cls-5 {
        fill: #6c8ce7;
      }
    </style>
  </defs>
  <!-- Generator: Adobe Illustrator 28.6.0, SVG Export Plug-In . SVG Version: 1.2.0 Build 709)  -->
  <g>
    <g id="Layer_1">
      <g>
        <rect class="cls-1" x="12.8" y="96.83" width="14.86" height="27.59" rx="5.88" ry="5.88"/>
        <rect class="cls-2" x="36.86" y="77.72" width="14.86" height="24.76" rx="5.88" ry="5.88"/>
        <rect class="cls-2" x="36.86" y="107.44" width="14.86" height="16.98" rx="5.88" ry="5.88"/>
        <rect class="cls-4" x="60.91" y="101.07" width="16.27" height="23.35" rx="6.44" ry="6.44"/>
        <rect class="cls-4" x="60.91" y="76.31" width="16.27" height="19.1" rx="6.44" ry="6.44"/>
        <rect class="cls-4" x="60.91" y="53.67" width="16.27" height="19.1" rx="6.44" ry="6.44"/>
        <rect class="cls-5" x="84.96" y="34.57" width="16.27" height="31.84" rx="6.44" ry="6.44"/>
        <rect class="cls-5" x="84.96" y="70.65" width="16.27" height="31.84" rx="6.44" ry="6.44"/>
        <rect class="cls-5" x="84.96" y="105.31" width="16.27" height="19.1" rx="6.44" ry="6.44"/>
      </g>
      <g>
        <path class="cls-5" d="M115.37,54.01v-19.36h4.47v19.36h-4.47Z"/>
        <path class="cls-5" d="M128.02,42.91v11.1h-4.47v-19.36h3.54l8.97,11.4v-11.4h4.44v19.36h-3.63l-8.86-11.1Z"/>
        <path class="cls-5" d="M143.12,44.14c0-1.16.21-2.31.64-3.45.43-1.14,1.06-2.17,1.91-3.11.85-.94,1.87-1.68,3.07-2.24s2.55-.83,4.06-.83c1.82,0,3.39.39,4.73,1.17,1.34.78,2.34,1.8,3.01,3.05l-3.46,2.43c-.27-.69-.65-1.23-1.13-1.62s-1.01-.66-1.58-.82-1.13-.23-1.68-.23c-.84,0-1.57.17-2.21.5-.64.34-1.16.79-1.58,1.35s-.73,1.19-.94,1.88c-.21.69-.31,1.37-.31,2.04,0,.78.12,1.53.37,2.24s.59,1.34,1.04,1.88c.45.54.98.98,1.61,1.29.63.32,1.33.48,2.11.48.54,0,1.1-.09,1.66-.26.56-.17,1.09-.46,1.57-.86s.85-.93,1.1-1.58l3.68,2.18c-.4.95-1.04,1.75-1.91,2.43-.87.67-1.85,1.19-2.94,1.54-1.09.35-2.18.53-3.27.53-1.4,0-2.68-.29-3.84-.86-1.16-.57-2.17-1.34-3.03-2.29-.85-.95-1.51-2.03-1.98-3.22-.46-1.19-.7-2.4-.7-3.64Z"/>
        <path class="cls-5" d="M171.18,54.14c-1.42,0-2.71-.28-3.88-.83-1.17-.55-2.19-1.3-3.04-2.24-.85-.94-1.51-1.99-1.96-3.16-.46-1.17-.68-2.38-.68-3.64s.24-2.52.72-3.68c.48-1.16,1.15-2.2,2.02-3.12.86-.92,1.88-1.64,3.07-2.17s2.47-.79,3.87-.79,2.74.28,3.91.83c1.17.55,2.18,1.3,3.03,2.25.84.95,1.5,2,1.95,3.18s.68,2.37.68,3.58c0,1.29-.24,2.52-.71,3.68s-1.14,2.2-2.02,3.12c-.87.92-1.89,1.65-3.07,2.18-1.17.54-2.47.8-3.88.8ZM166.13,44.33c0,.75.11,1.47.34,2.17.23.7.55,1.32.98,1.87s.95.98,1.58,1.31c.63.33,1.37.49,2.22.49s1.57-.17,2.21-.5c.64-.34,1.16-.79,1.58-1.36.42-.57.73-1.2.94-1.89.21-.69.31-1.4.31-2.13s-.11-1.46-.34-2.15c-.23-.69-.55-1.31-.98-1.87-.43-.55-.96-.99-1.6-1.3-.64-.31-1.35-.46-2.15-.46-.85,0-1.6.16-2.24.49-.64.33-1.16.77-1.58,1.34s-.74,1.19-.95,1.87c-.22.68-.33,1.39-.33,2.14Z"/>
        <path class="cls-5" d="M198.71,54.01v-11.56l-4.2,8.4h-2.43l-4.17-8.4v11.56h-4.47v-19.36h4.85l5.02,10.12,5.02-10.12h4.85v19.36h-4.47Z"/>
        <path class="cls-5" d="M220.5,50.08v3.93h-13.61v-19.36h13.36v3.93h-8.89v3.76h7.63v3.63h-7.63v4.12h9.13Z"/>
        <path class="cls-5" d="M229.22,48.45v-3.87h8.37v3.87h-8.37Z"/>
        <path class="cls-5" d="M260.88,50.08v3.93h-13.61v-19.36h13.36v3.93h-8.89v3.76h7.63v3.63h-7.63v4.12h9.13Z"/>
        <path class="cls-5" d="M266.44,34.65l4.2,6.65,4.2-6.65h4.85l-6.41,9.81,6.19,9.54h-4.85l-3.98-6.38-3.98,6.38h-4.88l6.19-9.54-6.41-9.81h4.88Z"/>
        <path class="cls-5" d="M281.35,54.01v-19.36h8.26c.93,0,1.77.19,2.54.57.76.38,1.43.88,2,1.5.57.62,1.01,1.32,1.32,2.1.31.78.46,1.58.46,2.4,0,1.09-.26,2.14-.78,3.15s-1.24,1.83-2.15,2.45-1.99.94-3.23.94h-3.95v6.24h-4.47ZM285.82,43.84h3.65c.34,0,.66-.09.94-.29.28-.19.51-.49.7-.89.18-.4.27-.88.27-1.45,0-.62-.1-1.12-.3-1.51-.2-.39-.46-.68-.78-.86-.32-.18-.65-.27-1-.27h-3.49v5.26Z"/>
        <path class="cls-5" d="M311.94,50.08v3.93h-13.61v-19.36h13.36v3.93h-8.89v3.76h7.63v3.63h-7.63v4.12h9.13Z"/>
        <path class="cls-5" d="M319.14,42.91v11.1h-4.47v-19.36h3.54l8.97,11.4v-11.4h4.44v19.36h-3.63l-8.86-11.1Z"/>
        <path class="cls-5" d="M346.97,40.32c-.05-.05-.25-.19-.59-.4s-.75-.42-1.23-.64c-.48-.22-1.01-.4-1.59-.56-.58-.15-1.16-.23-1.75-.23-.76,0-1.35.14-1.77.41s-.63.67-.63,1.19c0,.41.16.75.48,1.01.32.26.78.49,1.38.68.6.19,1.34.4,2.21.63,1.24.34,2.31.74,3.22,1.2.91.46,1.6,1.05,2.09,1.77s.72,1.68.72,2.87c0,1.06-.2,1.98-.59,2.74-.39.77-.94,1.38-1.64,1.84-.7.46-1.48.79-2.34,1-.86.21-1.76.31-2.69.31s-1.91-.1-2.9-.3c-.99-.2-1.94-.48-2.85-.84-.91-.36-1.75-.78-2.51-1.25l1.94-3.93c.09.11.34.28.74.52.4.24.89.49,1.49.75s1.25.5,1.98.71c.73.21,1.45.31,2.18.31.82,0,1.42-.13,1.81-.38.39-.26.59-.61.59-1.05,0-.47-.2-.84-.61-1.12-.41-.28-.96-.53-1.66-.76-.7-.23-1.5-.46-2.41-.72-1.18-.38-2.16-.79-2.93-1.23s-1.34-.99-1.72-1.64c-.37-.65-.56-1.45-.56-2.41,0-1.37.32-2.52.97-3.45s1.51-1.63,2.6-2.11c1.09-.48,2.28-.72,3.57-.72.93,0,1.81.11,2.64.33.84.22,1.63.49,2.37.82.75.33,1.39.66,1.94,1.01l-1.94,3.65Z"/>
        <path class="cls-5" d="M365.73,50.08v3.93h-13.61v-19.36h13.36v3.93h-8.89v3.76h7.63v3.63h-7.63v4.12h9.13Z"/>
      </g>
      <g>
        <path class="cls-5" d="M129.83,108.16c-.05-.05-.25-.19-.59-.4-.34-.21-.75-.42-1.23-.64-.48-.22-1.01-.4-1.59-.56-.58-.15-1.16-.23-1.75-.23-.76,0-1.35.13-1.77.41-.42.27-.63.67-.63,1.19,0,.42.16.75.48,1.01.32.26.78.49,1.38.67.6.19,1.34.4,2.21.64,1.24.34,2.31.74,3.22,1.2.91.46,1.6,1.05,2.09,1.77s.72,1.68.72,2.87c0,1.06-.2,1.98-.59,2.74-.39.77-.94,1.38-1.64,1.84-.7.46-1.48.79-2.34,1-.86.21-1.76.31-2.69.31s-1.91-.1-2.9-.3c-.99-.2-1.94-.48-2.85-.84-.91-.36-1.75-.78-2.51-1.25l1.94-3.93c.09.11.34.28.74.52.4.24.89.49,1.49.75s1.25.5,1.98.71c.73.21,1.45.31,2.18.31.82,0,1.42-.13,1.81-.39.39-.26.59-.61.59-1.05,0-.47-.2-.84-.61-1.12-.41-.28-.96-.53-1.66-.76-.7-.23-1.5-.46-2.41-.72-1.18-.38-2.16-.79-2.93-1.23s-1.34-.99-1.72-1.64c-.37-.65-.56-1.45-.56-2.41,0-1.37.32-2.52.97-3.45s1.51-1.63,2.6-2.11c1.09-.48,2.28-.72,3.57-.72.93,0,1.81.11,2.64.33.84.22,1.63.49,2.37.82.75.33,1.39.66,1.94,1.01l-1.94,3.65Z"/>
        <path class="cls-5" d="M138.53,102.49l4.17,8.56,4.25-8.56h4.88l-6.9,12.76v6.6h-4.44v-6.65l-6.79-12.71h4.83Z"/>
        <path class="cls-5" d="M165.46,108.16c-.05-.05-.25-.19-.59-.4-.34-.21-.75-.42-1.23-.64-.48-.22-1.01-.4-1.59-.56-.58-.15-1.16-.23-1.75-.23-.76,0-1.35.13-1.77.41-.42.27-.63.67-.63,1.19,0,.42.16.75.48,1.01.32.26.78.49,1.38.67.6.19,1.34.4,2.21.64,1.24.34,2.31.74,3.22,1.2.91.46,1.6,1.05,2.09,1.77s.72,1.68.72,2.87c0,1.06-.2,1.98-.59,2.74-.39.77-.94,1.38-1.64,1.84-.7.46-1.48.79-2.34,1-.86.21-1.76.31-2.69.31s-1.91-.1-2.9-.3c-.99-.2-1.94-.48-2.85-.84-.91-.36-1.75-.78-2.51-1.25l1.94-3.93c.09.11.34.28.74.52.4.24.89.49,1.49.75s1.25.5,1.98.71c.73.21,1.45.31,2.18.31.82,0,1.42-.13,1.81-.39.39-.26.59-.61.59-1.05,0-.47-.2-.84-.61-1.12-.41-.28-.96-.53-1.66-.76-.7-.23-1.5-.46-2.41-.72-1.18-.38-2.16-.79-2.93-1.23s-1.34-.99-1.72-1.64c-.37-.65-.56-1.45-.56-2.41,0-1.37.32-2.52.97-3.45s1.51-1.63,2.6-2.11c1.09-.48,2.28-.72,3.57-.72.93,0,1.81.11,2.64.33.84.22,1.63.49,2.37.82.75.33,1.39.66,1.94,1.01l-1.94,3.65Z"/>
        <path class="cls-5" d="M186.46,106.42h-5.89v15.43h-4.47v-15.43h-5.92v-3.93h16.28v3.93Z"/>
        <path class="cls-5" d="M203.33,117.92v3.93h-13.61v-19.36h13.36v3.93h-8.89v3.76h7.63v3.63h-7.63v4.12h9.13Z"/>
        <path class="cls-5" d="M222.42,121.85v-11.56l-4.2,8.4h-2.43l-4.17-8.4v11.56h-4.47v-19.36h4.85l5.02,10.12,5.02-10.12h4.85v19.36h-4.47Z"/>
      </g>
      <g>
        <path class="cls-5" d="M135.53,90.38v-13.39l-4.26,9.42h-3.72l-4.26-9.42v13.39h-6.98v-25.42h7.63l5.48,11.96,5.51-11.96h7.59v25.42h-6.98Z"/>
        <path class="cls-5" d="M152.75,64.96h7.81l8.09,25.42h-7.09l-1.31-4.98h-7.18l-1.31,4.98h-7.12l8.13-25.42ZM159.02,80.75l-2.36-8.95-2.36,8.95h4.73Z"/>
        <path class="cls-5" d="M177.75,77.89v12.5h-6.98v-25.42h5.44l10.21,12.93v-12.93h6.98v25.42h-5.55l-10.1-12.5Z"/>
        <path class="cls-5" d="M203.63,64.96h7.81l8.09,25.42h-7.09l-1.31-4.98h-7.18l-1.31,4.98h-7.12l8.13-25.42ZM209.9,80.75l-2.36-8.95-2.36,8.95h4.73Z"/>
        <path class="cls-5" d="M231.6,90.56c-1.65,0-3.22-.29-4.71-.88-1.49-.58-2.81-1.44-3.96-2.58s-2.05-2.51-2.7-4.12c-.66-1.61-.99-3.46-.99-5.53,0-1.79.33-3.45,1-4.98.67-1.53,1.59-2.87,2.78-4.03,1.18-1.16,2.56-2.06,4.13-2.7,1.58-.64,3.28-.97,5.12-.97,2.29,0,4.37.5,6.23,1.49,1.86.99,3.25,2.35,4.15,4.06l-5.19,3.97c-.5-1-1.25-1.81-2.26-2.42-1-.61-2.06-.91-3.19-.91-.84,0-1.6.17-2.29.5-.69.33-1.29.8-1.81,1.4-.51.6-.91,1.31-1.18,2.13-.28.82-.41,1.72-.41,2.7s.14,1.91.43,2.72.69,1.51,1.2,2.09,1.13,1.04,1.84,1.36c.72.32,1.52.48,2.4.48,1.12,0,2.2-.28,3.22-.84,1.03-.56,1.96-1.35,2.79-2.38v6.8c-1.91,1.74-4.12,2.61-6.62,2.61ZM237.87,81.86h-4.69v-5.01h10.46v13.54h-5.77v-8.52Z"/>
        <path class="cls-5" d="M265.19,84.3v6.09h-18.12v-25.42h17.79v6.09h-10.81v3.58h9.24v5.66h-9.24v4.01h11.14Z"/>
        <path class="cls-5" d="M287.67,90.38v-13.39l-4.26,9.42h-3.72l-4.26-9.42v13.39h-6.98v-25.42h7.63l5.48,11.96,5.51-11.96h7.59v25.42h-6.98Z"/>
        <path class="cls-5" d="M317.14,84.3v6.09h-18.12v-25.42h17.79v6.09h-10.81v3.58h9.24v5.66h-9.24v4.01h11.14Z"/>
        <path class="cls-5" d="M327.38,77.89v12.5h-6.98v-25.42h5.44l10.21,12.93v-12.93h6.98v25.42h-5.55l-10.1-12.5Z"/>
        <path class="cls-5" d="M367.2,71.05h-7.3v19.34h-6.98v-19.34h-7.34v-6.09h21.63v6.09Z"/>
      </g>
      <rect class="cls-3" x="236.3" y="102" width="129" height="20"/>
    </g>
  </g>
</svg>