<?xml version="1.0" encoding="UTF-8"?>
<svg xmlns="http://www.w3.org/2000/svg" version="1.1" viewBox="0 0 380 150">
  <defs>
    <style>
      .cls-1 {
        fill: #ce363e;
      }

      .cls-2 {
        fill: #e2bf48;
      }

      .cls-3 {
        fill: #1a1a1a;
      }

      .cls-4 {
        fill: #76a263;
      }

      .cls-5 {
        fill: #6c8ce7;
      }
    </style>
  </defs>
  <!-- Generator: Adobe Illustrator 28.6.0, SVG Export Plug-In . SVG Version: 1.2.0 Build 709)  -->
  <g>
    <g id="Layer_1">
      <g>
        <g>
          <rect class="cls-1" x="12.5" y="96.83" width="14.86" height="27.59" rx="5.88" ry="5.88"/>
          <rect class="cls-2" x="36.55" y="77.72" width="14.86" height="24.76" rx="5.88" ry="5.88"/>
          <rect class="cls-2" x="36.55" y="107.44" width="14.86" height="16.98" rx="5.88" ry="5.88"/>
          <rect class="cls-4" x="60.61" y="101.07" width="16.27" height="23.35" rx="6.44" ry="6.44"/>
          <rect class="cls-4" x="60.61" y="76.31" width="16.27" height="19.1" rx="6.44" ry="6.44"/>
          <rect class="cls-4" x="60.61" y="53.67" width="16.27" height="19.1" rx="6.44" ry="6.44"/>
          <rect class="cls-5" x="84.66" y="34.57" width="16.27" height="31.84" rx="6.44" ry="6.44"/>
          <rect class="cls-5" x="84.66" y="70.65" width="16.27" height="31.84" rx="6.44" ry="6.44"/>
          <rect class="cls-5" x="84.66" y="105.31" width="16.27" height="19.1" rx="6.44" ry="6.44"/>
        </g>
        <g>
          <path class="cls-4" d="M115.64,54.01v-19.36h1.91v19.36h-1.91Z"/>
          <path class="cls-4" d="M124.31,38.17v15.84h-1.91v-19.36h1.58l12.71,16.14v-16.11h1.91v19.33h-1.77l-12.51-15.84Z"/>
          <path class="cls-4" d="M142.17,44.17c0-1.18.2-2.34.61-3.48.41-1.14,1-2.17,1.79-3.11s1.74-1.68,2.89-2.24c1.14-.55,2.44-.83,3.9-.83,1.73,0,3.2.4,4.43,1.19s2.13,1.8,2.71,3.04l-1.5.93c-.42-.85-.95-1.53-1.58-2.03-.64-.5-1.31-.86-2.03-1.08-.72-.22-1.43-.33-2.14-.33-1.16,0-2.19.23-3.08.7-.89.46-1.64,1.08-2.25,1.85-.61.77-1.07,1.64-1.38,2.59s-.46,1.92-.46,2.9c0,1.07.18,2.1.54,3.08s.87,1.85,1.53,2.6c.65.75,1.42,1.35,2.3,1.8s1.84.67,2.88.67c.73,0,1.47-.13,2.23-.38.76-.25,1.48-.65,2.14-1.17.66-.53,1.2-1.21,1.6-2.04l1.58.82c-.4.96-1.02,1.78-1.85,2.45-.84.67-1.77,1.18-2.79,1.53-1.03.35-2.03.52-3.01.52-1.33,0-2.54-.29-3.65-.86-1.11-.57-2.07-1.34-2.88-2.29s-1.43-2.03-1.87-3.22c-.44-1.19-.65-2.39-.65-3.61Z"/>
          <path class="cls-4" d="M169.73,54.14c-1.36,0-2.6-.27-3.71-.82-1.11-.55-2.06-1.29-2.86-2.22-.8-.94-1.42-1.99-1.85-3.16s-.65-2.38-.65-3.61.23-2.52.68-3.69,1.1-2.22,1.92-3.14c.83-.92,1.79-1.64,2.9-2.18,1.11-.54,2.31-.8,3.6-.8,1.36,0,2.6.28,3.71.85,1.11.56,2.06,1.32,2.85,2.26.79.95,1.4,2,1.84,3.16.44,1.16.65,2.35.65,3.57,0,1.29-.23,2.52-.68,3.69-.46,1.17-1.09,2.22-1.91,3.14-.82.92-1.78,1.64-2.89,2.17-1.11.53-2.31.79-3.6.79ZM162.56,44.33c0,1.05.17,2.07.52,3.04.35.97.84,1.84,1.47,2.59.64.75,1.39,1.35,2.28,1.8.88.45,1.85.67,2.9.67,1.11,0,2.1-.23,2.99-.69.88-.46,1.63-1.08,2.26-1.85.63-.77,1.1-1.64,1.43-2.6.33-.96.49-1.94.49-2.94,0-1.05-.17-2.06-.52-3.03-.34-.96-.84-1.83-1.48-2.59-.65-.76-1.4-1.36-2.28-1.8-.87-.44-1.84-.65-2.89-.65s-2.08.23-2.96.68c-.88.45-1.64,1.07-2.26,1.84-.63.77-1.11,1.64-1.45,2.6s-.5,1.94-.5,2.94Z"/>
          <path class="cls-4" d="M199.56,54.01v-15.76l-7.01,12.24h-1.2l-7.03-12.24v15.76h-1.91v-19.36h1.96l7.55,13.25,7.61-13.25h1.94v19.36h-1.91Z"/>
          <path class="cls-4" d="M219.32,52.32v1.69h-13v-19.36h12.76v1.69h-10.85v6.98h9.46v1.61h-9.46v7.39h11.1Z"/>
          <path class="cls-3" d="M229.22,47.44v-1.72h7.96v1.72h-7.96Z"/>
          <path class="cls-1" d="M261.34,52.32v1.69h-13v-19.36h12.76v1.69h-10.85v6.98h9.46v1.61h-9.46v7.39h11.1Z"/>
          <path class="cls-1" d="M264.83,34.65l6.32,8.42,6.3-8.42h2.15l-7.42,9.81,7.2,9.54h-2.15l-6.08-8.15-6.11,8.15h-2.18l7.2-9.54-7.42-9.81h2.18Z"/>
          <path class="cls-1" d="M282.17,54.01v-19.36h8.02c.84,0,1.6.17,2.3.52.7.35,1.3.81,1.81,1.4.51.59.91,1.25,1.2,1.96.29.72.44,1.45.44,2.19,0,1.05-.23,2.05-.7,2.99s-1.11,1.69-1.95,2.28c-.84.58-1.82.87-2.95.87h-6.27v7.14h-1.91ZM284.07,45.17h6.19c.76,0,1.43-.21,1.99-.63.56-.42,1-.96,1.31-1.64.31-.67.46-1.4.46-2.18s-.18-1.54-.54-2.21c-.37-.67-.84-1.2-1.43-1.59-.59-.39-1.24-.59-1.95-.59h-6.03v8.83Z"/>
          <path class="cls-1" d="M312.13,52.32v1.69h-13.01v-19.36h12.76v1.69h-10.85v6.98h9.46v1.61h-9.46v7.39h11.1Z"/>
          <path class="cls-1" d="M317.63,38.17v15.84h-1.91v-19.36h1.58l12.71,16.14v-16.11h1.91v19.33h-1.77l-12.51-15.84Z"/>
          <path class="cls-1" d="M348.09,38.28c-.27-.31-.59-.59-.96-.83-.36-.25-.77-.46-1.23-.64-.46-.18-.94-.33-1.46-.44s-1.07-.16-1.65-.16c-1.69,0-2.93.32-3.72.97-.79.64-1.19,1.52-1.19,2.63,0,.76.19,1.36.56,1.8s.96.79,1.76,1.06c.8.27,1.82.55,3.05.84,1.38.29,2.57.64,3.57,1.03,1,.4,1.77.94,2.32,1.62.54.68.82,1.6.82,2.76,0,.89-.17,1.66-.52,2.31-.35.65-.83,1.2-1.45,1.63-.62.44-1.36.76-2.21.97-.85.21-1.79.31-2.81.31s-1.96-.1-2.88-.31c-.92-.21-1.79-.52-2.6-.93-.82-.41-1.58-.93-2.29-1.57l.96-1.55c.34.36.76.7,1.24,1.02.48.32,1.02.6,1.61.86.59.25,1.23.45,1.91.59.68.14,1.39.2,2.11.2,1.54,0,2.75-.28,3.61-.84s1.29-1.4,1.29-2.5c0-.8-.22-1.44-.65-1.92-.44-.48-1.09-.88-1.96-1.18-.87-.31-1.95-.61-3.22-.9-1.35-.31-2.48-.65-3.41-1.03-.93-.38-1.62-.89-2.09-1.51s-.7-1.46-.7-2.49c0-1.2.29-2.21.89-3.04.59-.83,1.4-1.45,2.44-1.88,1.04-.43,2.23-.64,3.57-.64.85,0,1.65.09,2.38.26s1.42.42,2.04.75,1.21.74,1.76,1.23l-.93,1.53Z"/>
          <path class="cls-1" d="M366.33,52.32v1.69h-13v-19.36h12.76v1.69h-10.85v6.98h9.46v1.61h-9.46v7.39h11.1Z"/>
        </g>
        <g>
          <path class="cls-2" d="M129.8,106.12c-.27-.31-.59-.59-.95-.83-.37-.25-.77-.46-1.23-.64-.45-.18-.94-.33-1.46-.44-.52-.11-1.07-.16-1.65-.16-1.69,0-2.93.32-3.72.97-.79.64-1.19,1.52-1.19,2.63,0,.76.19,1.36.56,1.8.37.44.96.79,1.76,1.06.8.27,1.82.55,3.05.84,1.38.29,2.57.64,3.57,1.03,1,.4,1.77.94,2.32,1.62.54.68.82,1.6.82,2.76,0,.89-.17,1.66-.52,2.31s-.83,1.2-1.45,1.63c-.62.43-1.35.76-2.21.97-.86.21-1.79.31-2.81.31s-1.96-.11-2.88-.31c-.92-.21-1.79-.52-2.6-.93-.82-.41-1.58-.93-2.29-1.57l.96-1.55c.35.36.76.7,1.24,1.02.48.32,1.02.6,1.61.86.59.25,1.23.45,1.91.59.68.14,1.38.21,2.11.21,1.54,0,2.75-.28,3.61-.84s1.29-1.4,1.29-2.5c0-.8-.22-1.44-.65-1.92-.44-.48-1.09-.88-1.96-1.18-.87-.31-1.95-.61-3.22-.9-1.35-.31-2.48-.65-3.41-1.03-.93-.38-1.62-.88-2.09-1.51-.46-.63-.7-1.46-.7-2.49,0-1.2.3-2.21.89-3.04.59-.83,1.4-1.45,2.44-1.88,1.04-.43,2.23-.64,3.57-.64.85,0,1.65.09,2.38.26.74.17,1.42.42,2.04.75.63.33,1.21.74,1.76,1.23l-.93,1.53Z"/>
          <path class="cls-2" d="M163.04,102.49l6.33,10.42,6.38-10.42h2.07l-7.5,12.16v7.2h-1.91v-7.25l-7.47-12.11h2.1Z"/>
          <path class="cls-2" d="M219.66,106.12c-.27-.31-.59-.59-.95-.83-.37-.25-.77-.46-1.23-.64-.45-.18-.94-.33-1.46-.44-.52-.11-1.07-.16-1.65-.16-1.69,0-2.93.32-3.72.97-.79.64-1.19,1.52-1.19,2.63,0,.76.19,1.36.56,1.8.37.44.96.79,1.76,1.06.8.27,1.82.55,3.05.84,1.38.29,2.57.64,3.57,1.03,1,.4,1.77.94,2.32,1.62.54.68.82,1.6.82,2.76,0,.89-.17,1.66-.52,2.31s-.83,1.2-1.45,1.63c-.62.43-1.35.76-2.21.97-.86.21-1.79.31-2.81.31s-1.96-.11-2.88-.31c-.92-.21-1.79-.52-2.6-.93-.82-.41-1.58-.93-2.29-1.57l.96-1.55c.35.36.76.7,1.24,1.02.48.32,1.02.6,1.61.86.59.25,1.23.45,1.91.59.68.14,1.38.21,2.11.21,1.54,0,2.75-.28,3.61-.84s1.29-1.4,1.29-2.5c0-.8-.22-1.44-.65-1.92-.44-.48-1.09-.88-1.96-1.18-.87-.31-1.95-.61-3.22-.9-1.35-.31-2.48-.65-3.41-1.03-.93-.38-1.62-.88-2.09-1.51-.46-.63-.7-1.46-.7-2.49,0-1.2.3-2.21.89-3.04.59-.83,1.4-1.45,2.44-1.88,1.04-.43,2.23-.64,3.57-.64.85,0,1.65.09,2.38.26.74.17,1.42.42,2.04.75.63.33,1.21.74,1.76,1.23l-.93,1.53Z"/>
          <path class="cls-2" d="M266.96,104.18h-6.9v17.67h-1.91v-17.67h-6.9v-1.69h15.7v1.69Z"/>
          <path class="cls-2" d="M311.21,120.16v1.69h-13.01v-19.36h12.76v1.69h-10.85v6.98h9.46v1.61h-9.46v7.39h11.1Z"/>
          <path class="cls-2" d="M360.32,121.85v-15.76l-7.01,12.24h-1.2l-7.03-12.24v15.76h-1.91v-19.36h1.96l7.55,13.25,7.61-13.25h1.94v19.36h-1.91Z"/>
        </g>
        <g>
          <path class="cls-5" d="M135.23,90.38v-13.39l-4.26,9.42h-3.72l-4.26-9.42v13.39h-6.98v-25.42h7.62l5.48,11.96,5.52-11.96h7.59v25.42h-6.98Z"/>
          <path class="cls-5" d="M152.45,64.96h7.81l8.09,25.42h-7.09l-1.31-4.98h-7.18l-1.31,4.98h-7.12l8.13-25.42ZM158.72,80.75l-2.36-8.95-2.36,8.95h4.72Z"/>
          <path class="cls-5" d="M177.44,77.89v12.5h-6.98v-25.42h5.44l10.21,12.93v-12.93h6.98v25.42h-5.55l-10.1-12.5Z"/>
          <path class="cls-5" d="M203.33,64.96h7.81l8.09,25.42h-7.09l-1.31-4.98h-7.18l-1.31,4.98h-7.12l8.13-25.42ZM209.6,80.75l-2.36-8.95-2.36,8.95h4.72Z"/>
          <path class="cls-5" d="M231.3,90.56c-1.65,0-3.22-.29-4.71-.88-1.49-.58-2.81-1.44-3.96-2.58-1.15-1.13-2.05-2.51-2.7-4.12-.66-1.61-.99-3.46-.99-5.53,0-1.79.33-3.45,1-4.98.67-1.53,1.59-2.87,2.78-4.03s2.56-2.06,4.13-2.7,3.28-.97,5.12-.97c2.29,0,4.37.5,6.23,1.49,1.86.99,3.25,2.35,4.15,4.06l-5.19,3.97c-.5-1-1.25-1.81-2.26-2.42-1-.61-2.06-.91-3.19-.91-.84,0-1.6.17-2.29.5-.69.33-1.29.8-1.81,1.4-.51.6-.91,1.31-1.18,2.13-.28.82-.41,1.72-.41,2.7s.14,1.91.43,2.72c.29.81.69,1.51,1.2,2.09s1.13,1.04,1.85,1.36c.71.32,1.52.48,2.4.48,1.12,0,2.2-.28,3.22-.84,1.03-.56,1.96-1.35,2.79-2.38v6.8c-1.91,1.74-4.12,2.61-6.62,2.61ZM237.56,81.86h-4.69v-5.01h10.46v13.54h-5.77v-8.52Z"/>
          <path class="cls-5" d="M264.88,84.3v6.09h-18.12v-25.42h17.79v6.09h-10.81v3.58h9.24v5.66h-9.24v4.01h11.13Z"/>
          <path class="cls-5" d="M287.37,90.38v-13.39l-4.26,9.42h-3.72l-4.26-9.42v13.39h-6.98v-25.42h7.62l5.48,11.96,5.52-11.96h7.59v25.42h-6.98Z"/>
          <path class="cls-5" d="M316.84,84.3v6.09h-18.12v-25.42h17.79v6.09h-10.81v3.58h9.24v5.66h-9.24v4.01h11.13Z"/>
          <path class="cls-5" d="M327.08,77.89v12.5h-6.98v-25.42h5.44l10.21,12.93v-12.93h6.98v25.42h-5.55l-10.1-12.5Z"/>
          <path class="cls-5" d="M366.9,71.05h-7.3v19.34h-6.98v-19.34h-7.34v-6.09h21.63v6.09Z"/>
        </g>
      </g>
    </g>
  </g>
</svg>